<svg xmlns="http://www.w3.org/2000/svg" viewBox="0 0 303.14 187.36"><defs><style>.a{fill:#f5faf8;}.b{fill:#0071b5;}.c{fill:#0083ca;}.d{fill:#ed1c24;}</style></defs><title>C-cloud</title><path class="a" d="M352.08,407.39a50,50,0,0,1-50,50H117.38a49.55,49.55,0,0,1-6.82-.47,46.6,46.6,0,0,1-7,.53c-30.16,0-54.6-28.52-54.6-63.71S73.38,330,103.54,330a47.45,47.45,0,0,1,17.66,3.41c9-36.59,37.92-63.35,72.18-63.35,26.34,0,49.51,15.82,62.92,39.76a47.44,47.44,0,0,1,12.19-1.59c27.15,0,49.69,23.13,53.9,53.43a50,50,0,0,1,29.69,45.7Z" transform="translate(-48.94 -270.09)"/><path class="b" d="M352.08,407.39a50,50,0,0,1-50,50H117.38a49.55,49.55,0,0,1-6.82-.47,46.6,46.6,0,0,1-7,.53c-30.16,0-54.6-28.52-54.6-63.71,0-.32,0-.64,0-1,.42,33,23.51,59.54,52,59.54a43.51,43.51,0,0,0,6.68-.51,46.34,46.34,0,0,0,6.49.45h175.8a47.44,47.44,0,0,0,19.33-90.82c-4-28.75-25.46-50.71-51.3-50.71a45.56,45.56,0,0,0-11.6,1.51c-12.77-22.72-34.82-37.73-59.89-37.73a63.63,63.63,0,0,0-35.9,11.24c12.15-9.87,26.93-15.66,42.86-15.66,26.34,0,49.51,15.82,62.92,39.76a47.44,47.44,0,0,1,12.19-1.59c27.15,0,49.69,23.13,53.9,53.43a50,50,0,0,1,29.69,45.7Z" transform="translate(-48.94 -270.09)"/><path class="b" d="M244.34,382.05a25,25,0,0,1-.23,3.16c-1.38-10-9.05-17.77-18.31-17.85a16.46,16.46,0,0,0-6.61,1.31c-6.23,2.6-10.92,8.88-12,16.54a24.67,24.67,0,0,1-.23-3.47c.07-9.05,5.14-16.73,12.21-19.69a16.63,16.63,0,0,1,6.61-1.31C236.1,360.84,244.42,370.36,244.34,382.05Z" transform="translate(-48.94 -270.09)"/><path class="c" d="M181.91,381.93a24.86,24.86,0,0,1-.27,3.38c-1.48-9.94-9.27-17.55-18.69-17.62s-17.45,7.55-19,17.6a21.11,21.11,0,0,1-.27-3.66c.08-11.67,8.68-21.08,19.23-21S182,370.27,181.91,381.93Z" transform="translate(-48.94 -270.09)"/><path class="d" d="M207,400.83c-.25,8.55-2.24,16.05-5.19,20.77-2.07,3.32-4.6,5.27-7.34,5.27s-5.41-2.06-7.5-5.53c-.19-.29-.36-.6-.53-.91-2.57-4.74-4.28-11.72-4.51-19.6h.1a17.42,17.42,0,0,0,24.59,0Z" transform="translate(-48.94 -270.09)"/></svg>