<svg xmlns="http://www.w3.org/2000/svg" viewBox="0 0 303.14 187.36"><defs><style>.a{fill:#f5faf8;}.b{fill:#0071b5;}.c{fill:#0083ca;}.d{fill:#f190ac;}.e{fill:#ed1c24;}</style></defs><title>D-cloud</title><path class="a" d="M352.08,407.39a50,50,0,0,1-50,50H117.38a49.55,49.55,0,0,1-6.82-.47,46.6,46.6,0,0,1-7,.53c-30.16,0-54.6-28.52-54.6-63.71S73.38,330,103.54,330a47.45,47.45,0,0,1,17.66,3.41c9-36.59,37.92-63.35,72.18-63.35,26.34,0,49.51,15.82,62.92,39.76a47.44,47.44,0,0,1,12.19-1.59c27.15,0,49.69,23.13,53.9,53.43a50,50,0,0,1,29.69,45.7Z" transform="translate(-48.94 -270.09)"/><path class="b" d="M352.08,407.39a50,50,0,0,1-50,50H117.38a49.55,49.55,0,0,1-6.82-.47,46.6,46.6,0,0,1-7,.53c-30.16,0-54.6-28.52-54.6-63.71,0-.32,0-.64,0-1,.42,33,23.51,59.54,52,59.54a43.51,43.51,0,0,0,6.68-.51,46.34,46.34,0,0,0,6.49.45h175.8a47.44,47.44,0,0,0,19.33-90.82c-4-28.75-25.46-50.71-51.3-50.71a45.56,45.56,0,0,0-11.6,1.51c-12.77-22.72-34.82-37.73-59.89-37.73a63.63,63.63,0,0,0-35.9,11.24c12.15-9.87,26.93-15.66,42.86-15.66,26.34,0,49.51,15.82,62.92,39.76a47.44,47.44,0,0,1,12.19-1.59c27.15,0,49.69,23.13,53.9,53.43a50,50,0,0,1,29.69,45.7Z" transform="translate(-48.94 -270.09)"/><path class="b" d="M174.07,376a11.15,11.15,0,0,1-7.21,10.43,10.94,10.94,0,0,1-3.94.72A11.16,11.16,0,0,1,151.76,376a10.89,10.89,0,0,1,.41-3c.09-.34.2-.67.32-1h20.85A11.2,11.2,0,0,1,174.07,376Z" transform="translate(-48.94 -270.09)"/><path class="c" d="M238.22,375.46A11.15,11.15,0,1,1,216.46,372h21.22A11.08,11.08,0,0,1,238.22,375.46Z" transform="translate(-48.94 -270.09)"/><path class="d" d="M207.67,400.58c-.25,8.55-2.24,16.05-5.19,20.77-2.07,3.32-4.6,5.27-7.34,5.27s-5.41-2.06-7.5-5.53c-.19-.29-.36-.6-.53-.91-2.57-4.74-4.28-11.72-4.51-19.6Z" transform="translate(-48.94 -270.09)"/><path class="e" d="M206,400.58c-.93,13.36-6.14,23.6-12.41,23.6-2.37,0-4.59-1.46-6.48-4-2.57-4.74-4.28-11.72-4.51-19.6Z" transform="translate(-48.94 -270.09)"/><path class="c" d="M172.07,377a11.13,11.13,0,0,1-5.21,9.43,10.94,10.94,0,0,1-3.94.72A11.16,11.16,0,0,1,151.76,376a10.89,10.89,0,0,1,.41-3h19.17A11.2,11.2,0,0,1,172.07,377Z" transform="translate(-48.94 -270.09)"/></svg>