<svg xmlns="http://www.w3.org/2000/svg" viewBox="0 0 303.14 187.36"><defs><style>.a{fill:#f5faf8;}.b{fill:#0071b5;}.c{fill:#0099ce;}.c,.f{stroke:#0099ce;stroke-width:3px;}.c,.e,.f{stroke-miterlimit:10;}.d{fill:#ed1c24;}.e,.f{fill:none;}.e{stroke:#932733;}</style></defs><title>P-cloud</title><path class="a" d="M352.08,407.39a50,50,0,0,1-50,50H117.38a49.55,49.55,0,0,1-6.82-.47,46.6,46.6,0,0,1-7,.53c-30.16,0-54.6-28.52-54.6-63.71S73.38,330,103.54,330a47.45,47.45,0,0,1,17.66,3.41c9-36.59,37.92-63.35,72.18-63.35,26.34,0,49.51,15.82,62.92,39.76a47.44,47.44,0,0,1,12.19-1.59c27.15,0,49.69,23.13,53.9,53.43a50,50,0,0,1,29.69,45.7Z" transform="translate(-48.94 -270.09)"/><path class="b" d="M352.08,407.39a50,50,0,0,1-50,50H117.38a49.55,49.55,0,0,1-6.82-.47,46.6,46.6,0,0,1-7,.53c-30.16,0-54.6-28.52-54.6-63.71,0-.32,0-.64,0-1,.42,33,23.51,59.54,52,59.54a43.51,43.51,0,0,0,6.68-.51,46.34,46.34,0,0,0,6.49.45h175.8a47.44,47.44,0,0,0,19.33-90.82c-4-28.75-25.46-50.71-51.3-50.71a45.56,45.56,0,0,0-11.6,1.51c-12.77-22.72-34.82-37.73-59.89-37.73a63.63,63.63,0,0,0-35.9,11.24c12.15-9.87,26.93-15.66,42.86-15.66,26.34,0,49.51,15.82,62.92,39.76a47.44,47.44,0,0,1,12.19-1.59c27.15,0,49.69,23.13,53.9,53.43a50,50,0,0,1,29.69,45.7Z" transform="translate(-48.94 -270.09)"/><path class="c" d="M201.36,400.61l.06,0a9.64,9.64,0,0,0,2.16.49c.3,0,.59.06.88.07s.77,0,1.14,0v12.63a10.47,10.47,0,0,1-20.93,0v-13a13.34,13.34,0,0,0,2.82.22,7.21,7.21,0,0,0,1.47-.18,6.83,6.83,0,0,0,1.06-.33h11.3" transform="translate(-48.94 -270.09)"/><path class="d" d="M187.86,400.61h0a7.21,7.21,0,0,1-1.47.18,13.13,13.13,0,0,1-2.64-.19l-.18,0v13a10.51,10.51,0,0,0,8.25,10.23A10.14,10.14,0,0,0,194,424a10.5,10.5,0,0,0,10.46-10.47V400.91a18.18,18.18,0,0,1-2-.11,9,9,0,0,1-1-.17l-.1,0H187.86Z" transform="translate(-48.94 -270.09)"/><line class="e" x1="145.34" y1="129.36" x2="145.06" y2="142.06"/><line class="f" x1="82.87" y1="93.68" x2="120.45" y2="93.68"/><line class="f" x1="160.66" y1="93.68" x2="198.24" y2="93.68"/><polyline class="f" points="163.41 130.52 152.42 130.52 152.38 130.52 145.31 130.52 141.08 130.52 138.92 130.52 134.77 130.52 134.59 130.52 125.84 130.52"/></svg>